<?xml version="1.0" encoding="utf-8"?>
<!-- Generator: Adobe Illustrator 27.1.1, SVG Export Plug-In . SVG Version: 6.00 Build 0)  -->
<svg version="1.1" id="Layer_2_00000034067500570760816880000010110843686853247909_"
	 xmlns="http://www.w3.org/2000/svg" xmlns:xlink="http://www.w3.org/1999/xlink" x="0px" y="0px" viewBox="0 0 1919 1270"
	 style="enable-background:new 0 0 1919 1270;" xml:space="preserve">
<style type="text/css">
	.st0{fill:#DAE120;}
</style>
<g id="Layer_1-2">
	<rect width="1919" height="1270"/>
	<g>
		<path class="st0" d="M1014.5,64.6c0-0.1-0.1-0.1-0.2-0.1c0.1-0.3-0.1-0.7-0.4-0.8c-0.8-0.5-1.8-0.4-2.6,0.1
			c-0.8,0.5-1.3,1.3-1.4,2.3c0,0.9,0.6,1.9,1.6,2.1c0.9,0.2,1.8-0.2,2.5-0.8c0.3-0.3,0.7-0.8,0.8-1.2
			C1015,65.6,1014.8,65,1014.5,64.6L1014.5,64.6z M1011.6,66.3C1011.6,66.3,1011.6,66.3,1011.6,66.3c0,0,0-0.1,0-0.1c0,0,0,0,0-0.1
			c0-0.1,0-0.1,0-0.2c0,0,0-0.1,0-0.1c0-0.1,0-0.1,0.1-0.2c0,0,0-0.1,0-0.1c0-0.1,0.1-0.1,0.1-0.2c0,0,0-0.1,0-0.1
			c0.1-0.1,0.2-0.2,0.3-0.3c0,0,0.1,0,0.1-0.1c0.1,0,0.1-0.1,0.2-0.1c0,0,0.1,0,0.1,0h0c-0.2,0.6-0.4,1.1-0.6,1.7c0,0,0,0,0,0
			c0,0,0,0,0,0c0,0,0,0,0,0l0,0c0,0-0.1,0-0.1-0.1l0,0c0,0,0,0,0,0c0,0,0-0.1-0.1-0.1C1011.7,66.4,1011.7,66.4,1011.6,66.3
			L1011.6,66.3z"/>
		<path class="st0" d="M1389.3,107.5c-1.1,0-1.1,1.8,0,1.8S1390.4,107.5,1389.3,107.5z"/>
		<path class="st0" d="M138.8,60c0,0-0.1-0.1-0.1-0.1c-0.1-0.1-0.2-0.2-0.4-0.3c-0.1,0-0.3,0-0.4,0c0,0-0.1,0-0.1,0
			c-0.2,0-0.3,0.1-0.4,0.3c-0.1,0.1-0.1,0.2-0.1,0.3c0,0.2,0.1,0.3,0.2,0.4c0.1,0.1,0.2,0.1,0.4,0.1c0,0,0.1,0,0.1,0
			c0.1,0,0.1,0,0.2,0c0.1,0,0.1,0,0.1-0.1c0.1-0.1,0.2-0.2,0.2-0.2c0,0,0.1-0.1,0.1-0.1C138.9,60.2,138.9,60.1,138.8,60L138.8,60z"
			/>
		<path class="st0" d="M324,172.6l-1.7-1.7c-0.2-0.2-0.5-0.2-0.7,0c-0.2,0.2-0.2,0.5,0,0.7l1.7,1.7c0.2,0.2,0.5,0.2,0.7,0
			C324.2,173.1,324.2,172.8,324,172.6z"/>
		<g>
			<path class="st0" d="M159.6,127.7L159.6,127.7C159.6,127.7,159.6,127.7,159.6,127.7C159.6,127.7,159.6,127.7,159.6,127.7
				C159.6,127.6,159.6,127.6,159.6,127.7L159.6,127.7z"/>
			<path class="st0" d="M159.7,125.4c-0.9-0.1-1.5,0.8-1.4,1.7c0,0.4,0.2,0.9,0.5,1.2c0.1,0.1,0.2,0.2,0.3,0.2c0,0-0.1,0-0.1,0
				c-0.1,0-0.2,0-0.3-0.1c-0.1,0-0.1,0-0.2-0.1c0,0,0,0-0.1,0c0,0,0,0,0,0c-0.1-0.1-0.2-0.1-0.3-0.2c-0.1,0-0.1-0.1-0.1-0.1
				c0,0-0.1-0.1-0.1-0.1c-0.1-0.1-0.2-0.2-0.2-0.2c0,0,0,0-0.1-0.1c0,0,0,0,0,0l0,0c0-0.1-0.1-0.1-0.1-0.2c-0.1-0.2-0.4-0.3-0.7-0.2
				c-0.2,0.1-0.3,0.4-0.2,0.7c0.6,1,1.8,1.6,2.9,1.5c0.5-0.1,1.1-0.3,1.4-0.7c0.3-0.4,0.5-0.9,0.4-1.4
				C161.4,126.4,160.8,125.5,159.7,125.4L159.7,125.4z M160.4,127.6C160.4,127.6,160.4,127.7,160.4,127.6L160.4,127.6
				c0,0.1,0,0.2-0.1,0.2c0,0,0,0,0-0.1c-0.1-0.3-0.4-0.3-0.7-0.2c0.1-0.1,0,0,0,0c0,0,0,0,0,0c0,0,0,0,0,0l0,0l0,0l0,0l0,0
				c0,0,0,0,0,0l0,0l0,0c0,0,0,0-0.1,0c0,0,0,0-0.1-0.1l0,0c0-0.1-0.1-0.1-0.1-0.2l0,0c0,0,0-0.1,0-0.1c0-0.1,0-0.1-0.1-0.2
				c0,0,0-0.1,0-0.1c0-0.1,0-0.1,0-0.2c0,0,0-0.1,0-0.1c0,0,0-0.1,0-0.1c0,0,0,0,0,0c0,0,0-0.1,0-0.1l0,0c0,0,0,0,0,0c0,0,0,0,0,0
				c0,0,0,0,0,0c0,0,0,0,0,0l0,0c0,0,0,0,0,0c0,0,0,0,0.1,0l0,0c0,0,0.1,0,0.1,0c0,0,0,0,0,0l0,0c0.1,0,0.1,0,0.1,0c0,0,0,0,0,0
				c0,0,0.1,0,0.1,0c0,0,0,0,0,0c0.1,0,0.1,0.1,0.1,0.1c0,0,0,0,0,0c0,0,0.1,0.1,0.1,0.1c0,0,0,0,0,0c0,0,0,0.1,0.1,0.1
				s0,0.1,0.1,0.1c0,0,0,0.1,0,0.1c0,0,0,0.1,0,0.1c0,0,0,0.1,0,0.1c0,0,0,0.1,0,0.1c0,0,0,0.1,0,0.1
				C160.4,127.4,160.4,127.5,160.4,127.6C160.4,127.6,160.4,127.6,160.4,127.6L160.4,127.6z"/>
			<path class="st0" d="M159.4,126.5C159.4,126.5,159.4,126.5,159.4,126.5C159.4,126.5,159.4,126.5,159.4,126.5
				C159.4,126.5,159.4,126.5,159.4,126.5L159.4,126.5z"/>
		</g>
		<path class="st0" d="M274,139.3c-0.5-0.6-1.1-1.1-1.7-1.7c-0.2-0.2-0.5-0.2-0.7,0c-0.2,0.2-0.2,0.5,0,0.7c0.5,0.6,1.1,1.1,1.7,1.7
			c0.2,0.2,0.5,0.2,0.7,0C274.2,139.8,274.2,139.5,274,139.3z"/>
		<g>
			<path class="st0" d="M106,367.6L106,367.6C106,367.6,106,367.6,106,367.6C106,367.6,106,367.6,106,367.6L106,367.6z"/>
			<path class="st0" d="M106.8,367c-0.8-0.9-2.4-0.9-3.3,0c-0.3,0.3-0.4,0.6-0.5,1c-0.3,0.5-0.3,1.1,0,1.6c0.1,0.2,0.3,0.3,0.4,0.4
				c0.2,0.2,0.4,0.4,0.6,0.6c0.1,0.1,0.4,0.1,0.5,0c0.4,0.1,0.8,0,1.2-0.2c0.5-0.3,0.8-0.9,1-1.4c0.1-0.2,0.2-0.5,0.2-0.8
				c0-0.2,0.1-0.3,0.1-0.5C107,367.4,107,367.2,106.8,367L106.8,367z M106,367.7L106,367.7C106,367.6,106,367.6,106,367.7
				c0,0.1,0,0.3-0.1,0.4c-0.1,0.2-0.1,0.5-0.2,0.7l0,0l0,0c0,0,0,0,0,0.1c0,0-0.1,0.1-0.1,0.1c0,0,0,0,0,0c0.2-0.5,0.2-1.1-0.1-1.7
				h0c0,0,0.1,0,0.1,0c0,0,0.2,0.1,0.1,0c0.1,0,0.2,0.1,0.2,0.1c0,0,0,0,0,0l0,0C106,367.6,106,367.6,106,367.7
				C106,367.6,106,367.6,106,367.7C106,367.6,106,367.6,106,367.7L106,367.7z"/>
		</g>
		<path class="st0" d="M84.6,387.1c-0.1-0.1-0.2-0.1-0.3-0.1c-0.1,0-0.3,0-0.3,0.1c-0.1,0.1-0.2,0.2-0.2,0.4c0,0.1,0.1,0.3,0.1,0.4
			l0,0c0,0,0,0,0,0.1c0,0-0.1,0-0.1,0.1c0,0-0.1,0-0.1,0c-0.1-0.1-0.2-0.1-0.3-0.1s-0.3,0-0.3,0.1c-0.1,0.1-0.2,0.2-0.2,0.4
			c0,0,0,0.1,0,0.1c0,0.1,0.1,0.2,0.1,0.2c0.2,0.2,0.4,0.3,0.7,0.3c0.2,0,0.4-0.1,0.6-0.2c0.4-0.2,0.6-0.6,0.7-1
			C84.9,387.6,84.8,387.3,84.6,387.1L84.6,387.1z"/>
		<path class="st0" d="M116.8,332.4c-0.1-0.1-0.2-0.1-0.3-0.1c-0.1,0-0.3,0-0.3,0.1s-0.2,0.2-0.2,0.4v1.1c0,0.1,0.1,0.3,0.2,0.4
			s0.2,0.1,0.3,0.1c0.1,0,0.3,0,0.3-0.1s0.2-0.2,0.2-0.4v-1.1C117,332.6,116.9,332.4,116.8,332.4z"/>
		<g>
			<path class="st0" d="M143.6,387.1c-0.1-0.2-0.5-0.3-0.7-0.2c-0.2,0.2-0.3,0.4-0.2,0.7l0,0c0,0,0,0,0,0c0,0,0,0.1,0,0.1v0
				c0,0,0,0,0,0.1c0,0,0,0,0,0.1c0,0,0,0,0,0c0,0,0,0,0,0c0,0,0,0,0,0.1c0,0,0,0.1-0.1,0.1c0,0,0,0,0,0.1c0,0-0.1,0.1-0.1,0.1
				c0,0,0,0-0.1,0.1c0,0,0,0,0,0c0,0,0,0,0,0c0,0,0,0,0,0c0,0,0,0-0.1,0.1c0,0-0.1,0.1-0.1,0.1c0,0,0,0,0,0l0,0
				c-0.1,0.1-0.2,0.1-0.3,0.2c0,0,0,0-0.1,0c-0.1,0-0.1,0-0.2,0c0,0,0,0,0,0c0,0,0,0,0,0s-0.1,0-0.1,0c0,0,0,0,0,0c0,0-0.1,0-0.1,0
				c0,0-0.1,0-0.1,0c0,0,0,0,0,0c-0.2-0.1-0.6-0.1-0.7,0.2c-0.1,0.2-0.1,0.6,0.2,0.7c0.6,0.3,1.3,0.2,1.8-0.1c0.5-0.3,0.9-0.9,1-1.5
				C143.9,387.9,143.8,387.5,143.6,387.1L143.6,387.1z"/>
			<path class="st0" d="M142.6,388.6L142.6,388.6C142.6,388.6,142.5,388.6,142.6,388.6C142.6,388.6,142.6,388.6,142.6,388.6
				L142.6,388.6L142.6,388.6z"/>
		</g>
		<path class="st0" d="M702.9,560.9c-0.2-0.2-0.4-0.3-0.7-0.2c-0.2,0.1-0.3,0.5-0.2,0.7c0.1,0.1,0.2,0.2,0.2,0.4
			c0,0.1,0.1,0.1,0.1,0.2l0,0c0,0,0,0,0,0s0,0.1,0,0.1c-0.1-0.1-0.3-0.2-0.5-0.2c-0.4,0-0.7,0.2-0.8,0.6c-0.1,0.3,0,0.6,0.2,0.9
			c0.1,0.2,0.2,0.3,0.4,0.5c0,0,0,0.1-0.1,0.1c0,0,0,0-0.1,0.1c0.1-0.1,0,0,0,0c0,0,0,0-0.1,0c0,0,0,0,0,0c0,0,0,0-0.1,0
			c0,0,0,0,0,0c-0.1,0-0.1,0-0.2,0c-0.3,0-0.5,0.2-0.5,0.5c0,0.3,0.2,0.5,0.5,0.5c0.8,0.1,1.4-0.5,1.6-1.2c0.1-0.1,0.2-0.1,0.3-0.2
			C703.8,562.9,703.4,561.6,702.9,560.9L702.9,560.9z"/>
		<path class="st0" d="M676.6,658.5c0-0.3-0.2-0.5-0.5-0.5s-0.5,0.2-0.5,0.5c0,0.7,0,1.4,0,2.1c0,0.3,0.2,0.5,0.5,0.5
			s0.5-0.2,0.5-0.5C676.6,660,676.6,659.2,676.6,658.5z"/>
		<path class="st0" d="M122.1,1091.5c-0.1-0.2-0.3-0.3-0.5-0.4c-1.4-0.1-2.6,1.3-2.4,2.7c0.1,0.3,0.4,0.4,0.6,0.3
			c0.3-0.1,0.4-0.3,0.3-0.6c-0.1-0.7,0.4-1.2,1-1.4c0.3,1.6,0,3.2-0.9,4.5c-0.3,0.5,0.5,1.1,0.9,0.5
			C122.3,1095.5,122.6,1093.4,122.1,1091.5L122.1,1091.5z"/>
		<path class="st0" d="M166.1,617.5c-0.1-0.1-0.2-0.2-0.4-0.2c-0.1,0-0.3,0-0.4,0.2c-0.1,0.1-0.1,0.2-0.1,0.3v1.1
			c0,0.1,0.1,0.3,0.1,0.3c0.1,0.1,0.2,0.2,0.4,0.2c0.1,0,0.3,0,0.4-0.2c0.1-0.1,0.1-0.2,0.1-0.3v-1.1
			C166.3,617.7,166.2,617.5,166.1,617.5z"/>
		<g>
			<path class="st0" d="M143.3,640.2C143.3,640.2,143.3,640.2,143.3,640.2L143.3,640.2C143.3,640.2,143.3,640.2,143.3,640.2
				L143.3,640.2z"/>
			<path class="st0" d="M143.3,640.3L143.3,640.3C143.3,640.3,143.3,640.3,143.3,640.3z"/>
			<path class="st0" d="M144.6,638.7c-0.8-0.7-2.3-0.6-2.8,0.4c-0.1,0.1-0.1,0.3-0.1,0.4c-0.1,0.3-0.2,0.7-0.1,1.1
				c0.1,0.2,0.2,0.5,0.4,0.6c0.1,0,0.1,0.1,0.2,0.1c0,0,0,0,0.1,0c0,0,0,0,0,0c0.1,0.1,0.2,0.1,0,0c0,0,0.1,0.1,0.1,0.1
				c0.1,0,0.2,0.1,0.2,0.1c0.5,0.2,1.1,0,1.5-0.2s0.8-0.7,0.9-1.2C145.2,639.6,145.1,639,144.6,638.7L144.6,638.7z M142.8,640.4
				L142.8,640.4L142.8,640.4C142.9,640.4,142.8,640.4,142.8,640.4C142.8,640.4,142.8,640.4,142.8,640.4
				C142.8,640.4,142.8,640.4,142.8,640.4L142.8,640.4c-0.1-0.1-0.1-0.1-0.1-0.1c0,0,0,0,0,0c0,0,0-0.1,0-0.1c0,0,0,0,0,0
				c0,0,0-0.1,0-0.1c0,0,0,0,0,0c0,0,0,0,0,0c0,0,0,0,0,0v0c0,0,0,0,0,0c0,0,0,0,0,0c0,0,0-0.1,0-0.1l0,0c0,0,0-0.1,0.1-0.1l0,0l0,0
				c0,0,0,0,0.1,0c0,0,0,0,0,0c0,0,0,0,0,0c0,0,0.1,0,0.1,0c0,0,0,0,0.1,0c0,0,0,0,0,0c0,0,0,0,0,0c0,0,0.1,0,0.1,0c0,0,0,0,0,0
				s0,0,0,0c0,0,0,0.1,0.1,0.1c0,0,0,0,0,0c0,0.1,0,0.1,0.1,0.2c0,0,0,0,0,0.1c0,0,0,0,0,0c0,0,0,0,0,0c0,0,0,0,0,0l0,0l0,0
				c0,0,0,0,0,0.1c0,0,0,0,0,0c0,0,0,0,0,0.1c0,0,0,0,0,0c0,0-0.1,0.1,0,0c-0.1,0-0.1,0.1-0.2,0.2c0,0,0,0,0,0c0,0,0,0-0.1,0
				c0,0-0.1,0-0.1-0.1C142.9,640.4,142.9,640.4,142.8,640.4L142.8,640.4z"/>
			<path class="st0" d="M142.7,640C142.7,640,142.7,640,142.7,640L142.7,640C142.7,640,142.7,640,142.7,640z"/>
		</g>
		<g>
			<path class="st0" d="M1195.3,623c-0.3-0.5-0.8-0.7-1.3-0.7c-0.3,0-0.6,0-0.8,0.2c-0.3,0.2-0.5,0.4-0.6,0.7c0,0.1,0,0.3,0.1,0.4
				c0,0,0.1,0.1,0.1,0.1c-0.1,0.1-0.2,0.3-0.2,0.5c0.1,0.3,0.3,0.5,0.5,0.7c0.2,0.1,0.5,0.2,0.7,0.2c0.5,0,1-0.2,1.3-0.5
				C1195.5,624.2,1195.6,623.5,1195.3,623L1195.3,623z M1194,624.1C1194,624.1,1193.9,624.1,1194,624.1c-0.1,0-0.1,0-0.2,0
				c0,0,0,0,0,0c0,0-0.1,0-0.1,0c0,0,0,0,0,0c0,0-0.1,0-0.1,0c0,0,0,0,0,0c0,0,0,0,0,0c0,0,0,0,0-0.1c0,0,0,0,0,0c0,0,0,0,0,0
				c0-0.1-0.1-0.1-0.1-0.2c0.1-0.1,0.1-0.1,0.2-0.2l0,0c0,0-0.1,0.1,0,0c0,0,0,0,0,0c0,0,0,0,0,0c0,0,0,0,0.1,0c0,0,0,0,0,0
				c0,0,0,0,0.1,0l0,0c0,0,0,0,0.1,0c0,0,0.1,0,0.1,0c0,0-0.1,0,0,0c0,0,0,0,0,0h0c0,0,0,0,0,0c0,0,0,0,0,0c0,0,0.1,0,0.1,0
				c0,0,0,0,0,0c0.1,0,0.2,0,0.2,0.1l0,0c0,0,0.1,0,0.1,0.1c0,0,0,0,0,0c0,0,0.1,0,0.1,0.1c0,0,0,0,0,0c0,0,0,0,0,0.1c0,0,0,0,0,0
				c0,0,0,0,0,0c0,0,0,0.1,0,0.1c0,0,0,0,0,0s0,0,0,0c0,0,0,0,0,0.1c0,0,0,0,0,0c0,0-0.1,0-0.1,0.1c0,0,0,0,0,0c0,0-0.1,0-0.1,0.1
				l0,0c0,0-0.1,0-0.1,0C1194.1,624.1,1194,624.1,1194,624.1L1194,624.1z"/>
			<polygon class="st0" points="1193.8,623.3 1193.8,623.3 1193.8,623.3 			"/>
		</g>
		<path class="st0" d="M1187.5,721.4c-0.1-0.1-0.2-0.2-0.3-0.2c-0.1,0-0.3,0-0.3,0.2c-0.1,0.1-0.2,0.2-0.2,0.3v1.1
			c0,0.1,0.1,0.3,0.2,0.3c0.1,0.1,0.2,0.2,0.3,0.2c0.1,0,0.3,0,0.3-0.2c0.1-0.1,0.2-0.2,0.2-0.3v-1.1
			C1187.7,721.6,1187.6,721.5,1187.5,721.4z"/>
		<g>
			<path class="st0" d="M1177.8,708.2c-0.1-0.4-0.4-0.6-0.7-0.8c-0.3-0.2-0.8-0.3-1.1-0.2c-0.2,0-0.4,0.2-0.5,0.4
				c-0.1,0.2-0.1,0.5-0.1,0.7c0,0.3,0.4,0.4,0.6,0.3c0.2-0.1,0.3-0.3,0.3-0.5c0,0,0.1,0,0.1,0c0,0,0.1,0,0.1,0l0,0c0,0,0,0,0,0
				c0.1,0,0.1,0.1,0.2,0.1l0,0l0,0c0,0,0.1,0.1,0.1,0.1c0,0,0,0,0,0c0,0,0,0,0,0l0,0c0,0,0,0,0,0.1l0,0c0,0,0,0,0,0
				c0,0-0.1,0.1-0.1,0.1c0,0,0,0-0.1,0c0,0,0,0-0.1,0c0,0,0,0,0,0c0,0,0,0,0,0c0,0-0.1,0-0.1,0c0,0,0,0-0.1,0c0,0,0,0-0.1,0
				c0,0,0,0,0,0c0,0.1-0.2,0.1-0.3,0.1l0,0c0,0,0,0,0,0c-0.1,0-0.1,0-0.2,0c-0.1,0-0.1,0-0.2,0c0,0-0.1,0-0.1,0l0,0
				c-0.1,0-0.3,0-0.4-0.1s-0.2-0.1-0.4-0.1c0,0,0,0,0,0c0,0-0.1,0-0.1,0c0,0,0,0,0,0c0-0.1,0-0.1,0-0.2c0,0,0-0.1,0-0.1c0,0,0,0,0,0
				c0,0,0,0,0,0c0-0.1,0-0.2,0.1-0.2c0,0,0-0.1,0-0.1c0,0,0,0,0,0l0,0c0-0.1,0.1-0.2,0.1-0.2c0-0.1,0.1-0.1,0.1-0.2c0,0,0,0,0,0
				c0,0,0.1-0.1,0.1-0.1c0.1-0.1,0.1-0.1,0.2-0.2l0,0l0,0c0,0,0.1,0,0.1-0.1c0.1,0,0.1-0.1,0.2-0.1c0,0,0.1,0,0.1,0c0,0,0,0,0.1,0
				c0.1,0,0.1,0,0.2-0.1c0,0,0.1,0,0.1,0c0,0,0.1,0,0.1,0c0.1,0,0.2,0,0.2,0l0,0l0,0c0.1,0,0.1,0,0.2,0c0.2,0.1,0.6-0.1,0.6-0.3
				c0.1-0.3-0.1-0.5-0.3-0.6c-1-0.3-2.1,0.2-2.7,1.1c-0.3,0.4-0.5,0.9-0.5,1.4c0,0.3,0,0.6,0.2,0.8c0.1,0.1,0.2,0.2,0.4,0.2
				c0.1,0.1,0.3,0.1,0.4,0.2c0.9,0.3,2,0.4,2.7-0.4C1177.7,709.1,1177.9,708.6,1177.8,708.2L1177.8,708.2z"/>
			<path class="st0" d="M1176.9,708.5C1176.9,708.5,1176.9,708.5,1176.9,708.5C1176.9,708.5,1176.9,708.5,1176.9,708.5
				C1176.9,708.5,1176.9,708.5,1176.9,708.5L1176.9,708.5z"/>
		</g>
		<path class="st0" d="M1665.5,235c0-0.1-0.1-0.2-0.2-0.3c-0.2-0.1-0.6-0.1-0.7,0.2c-0.2,0.4-0.4,0.9-0.7,1.3
			c-0.1,0.1-0.1,0.2-0.1,0.4c0,0.1,0.1,0.2,0.2,0.3c0.2,0.1,0.6,0.1,0.7-0.2c0.2-0.4,0.4-0.9,0.7-1.3
			C1665.5,235.2,1665.5,235.1,1665.5,235z"/>
		<g>
			<path class="st0" d="M1691,289.9C1691,289.9,1691,289.9,1691,289.9L1691,289.9L1691,289.9C1691,289.9,1691,289.8,1691,289.9
				L1691,289.9L1691,289.9z"/>
			<path class="st0" d="M1694.8,288.4c-0.4,0.1-0.7,0.3-1,0.5c-0.1-0.2-0.2-0.4-0.3-0.5c-0.2-0.2-0.5-0.4-0.8-0.5
				c-0.3-0.1-0.6-0.1-0.8,0c-0.7,0-1.3,0.4-1.6,1c-0.3,0.6-0.4,1.4-0.2,2c0.2,0.7,0.7,1.3,1.3,1.6c0.9,0.4,2,0,2.7-0.6
				c0.8-0.7,1.4-1.8,1.3-2.9C1695.4,288.5,1695.1,288.3,1694.8,288.4L1694.8,288.4z M1692.4,291.5
				C1692.4,291.5,1692.4,291.5,1692.4,291.5C1692.4,291.5,1692.4,291.5,1692.4,291.5c-0.1,0-0.2,0-0.3,0c-0.1,0-0.1,0-0.2,0l0,0l0,0
				c0,0-0.1,0-0.1,0c-0.1,0-0.1,0-0.2,0c0,0-0.2-0.1-0.1,0c-0.1,0-0.1-0.1-0.2-0.1c0,0,0,0,0,0c0,0-0.1,0-0.1-0.1c0,0-0.1,0-0.1-0.1
				c0,0,0,0,0,0s0,0,0,0c0,0-0.1-0.1-0.1-0.1c0,0,0-0.1-0.1-0.1c0,0,0,0,0,0l0,0c0-0.1-0.1-0.2-0.1-0.2c0-0.1,0-0.1,0-0.2
				c0,0,0,0,0-0.1c0,0,0-0.1,0-0.1c0-0.1,0-0.2,0-0.2c0,0,0-0.1,0-0.1c0,0,0,0,0,0c0,0,0,0,0,0c0,0,0,0,0,0c0-0.1,0-0.1,0.1-0.2
				c0,0,0-0.1,0-0.1c0,0,0.1-0.1,0-0.1c0,0,0-0.1,0.1-0.1c0,0,0-0.1,0.1-0.1c0,0,0,0,0,0c0.1,0,0.1-0.1,0.1-0.1c0,0,0,0,0,0
				c0,0,0,0,0.1,0c0,0,0.1,0,0.1,0h0c0,0,0.1,0,0.1,0c0,0,0,0,0,0c0.1,0,0.3,0,0.4,0c0,0,0.2-0.1,0.1,0c0,0,0.1,0,0.1,0c0,0,0,0,0,0
				s0,0,0,0c0,0,0,0,0.1,0c0,0,0,0,0,0s0,0,0.1,0c0,0,0,0,0,0c0.1,0,0.1,0,0.1,0.1c0,0,0,0,0,0c0,0,0,0,0,0c0.1,0,0.1,0.1,0.1,0.1
				l0,0c0,0,0,0.1,0,0.1c0,0,0,0.1,0.1,0.1c0,0,0,0.1,0,0.1c0,0,0,0.2,0,0.1c0,0,0,0.1,0,0.1l0,0c0,0,0,0,0,0.1c0,0,0,0.1-0.1,0.1
				c-0.1,0.1-0.1,0.2-0.1,0.4c-0.1,0.2-0.2,0.5-0.2,0.7c0,0.3,0.1,0.5,0.3,0.6c0,0,0,0,0,0c0,0-0.1,0-0.1,0
				C1692.7,291.5,1692.6,291.5,1692.4,291.5L1692.4,291.5z"/>
		</g>
		<path class="st0" d="M1695.2,264.2c-0.2-0.3-0.5-0.6-0.9-0.7c-0.2,0-0.5,0-0.7,0c-0.3,0.1-0.5,0.2-0.6,0.5
			c-0.1,0.2-0.1,0.4,0.1,0.6c-0.1,0.1-0.2,0.1-0.2,0.2c0,0.1,0,0.3,0.1,0.4c0.2,0.4,0.6,0.6,1,0.6c0.4,0,0.8-0.1,1-0.4
			C1695.3,265.2,1695.4,264.7,1695.2,264.2L1695.2,264.2z"/>
		<path class="st0" d="M1709.1,285.9c-0.1,0.1-0.2,0.2-0.3,0.3c-0.5,0.5,0.2,1.2,0.7,0.7l0.3-0.3
			C1710.3,286.2,1709.6,285.5,1709.1,285.9z"/>
		<path class="st0" d="M1682.7,285.2c-0.1-0.1-0.2-0.1-0.3-0.1h-1.1c-0.1,0-0.3,0.1-0.3,0.1s-0.2,0.2-0.2,0.4c0,0.1,0.1,0.3,0.2,0.4
			s0.2,0.1,0.3,0.1h1.1c0.1,0,0.3-0.1,0.3-0.1s0.2-0.2,0.2-0.4C1682.8,285.4,1682.8,285.3,1682.7,285.2z"/>
		<path class="st0" d="M1773.8,551c-0.1-0.1-0.2-0.2-0.3-0.2h-1.1c-0.1,0-0.3,0.1-0.3,0.2s-0.2,0.2-0.2,0.3c0,0.1,0.1,0.3,0.2,0.3
			c0.1,0.1,0.2,0.2,0.3,0.2h1.1c0.1,0,0.3-0.1,0.3-0.2s0.2-0.2,0.2-0.3C1773.9,551.2,1773.9,551.1,1773.8,551z"/>
		<path class="st0" d="M1846.7,603.5c-0.1-0.1-0.2-0.2-0.3-0.2h-1.1c-0.1,0-0.3,0.1-0.3,0.2s-0.2,0.2-0.2,0.3c0,0.1,0.1,0.3,0.2,0.3
			c0.1,0.1,0.2,0.2,0.3,0.2h1.1c0.1,0,0.3-0.1,0.3-0.2s0.2-0.2,0.2-0.3C1846.8,603.7,1846.8,603.6,1846.7,603.5z"/>
		<path class="st0" d="M1776.3,653.1c0.1-0.2,0.1-0.4,0-0.6c-0.1-0.2-0.4-0.4-0.6-0.3c-0.1-0.1-0.2-0.1-0.3-0.2
			c-0.2-0.1-0.3-0.1-0.5-0.1c-0.1-0.1-0.3-0.2-0.5-0.3c-0.2-0.1-0.5-0.1-0.7,0.1c-0.3,0.2-0.4,0.5-0.5,0.8c-0.1,0.5-0.1,1,0.1,1.4
			c0,0,0,0,0,0c-0.2,0.2-0.3,0.4-0.2,0.7c0.1,0.2,0.4,0.3,0.7,0.2c0.4,0.5,0.9,0.8,1.4,1c0.2,0,0.5,0,0.6-0.2
			C1776.1,654.7,1776.4,653.9,1776.3,653.1L1776.3,653.1z"/>
		<path class="st0" d="M1762.8,639.2c-0.1-0.4-0.4-0.7-0.7-0.9c-0.4-0.2-0.9-0.3-1.4,0c-0.2,0.1-0.3,0.5-0.2,0.7
			c0.1,0.2,0.4,0.3,0.7,0.2c0,0,0,0,0,0c0,0,0.1,0,0.1,0c0,0,0.1,0,0.1,0c0,0,0.1,0,0.1,0c0.1,0,0.1,0,0.1,0.1c0,0,0.1,0.1,0.1,0.1
			c0,0,0,0.1,0.1,0.1c0,0,0,0,0,0.1c0,0,0,0,0,0.1s0,0,0,0c0,0,0,0,0,0.1c0,0-0.1,0-0.1,0.1c0,0-0.1,0-0.1,0.1c-0.1,0-0.1,0-0.2,0
			c-0.1,0-0.1,0-0.1,0c0,0-0.1,0-0.1,0c0,0-0.1,0-0.1,0c0,0,0,0,0,0c-0.2-0.2-0.5-0.2-0.7,0c-0.2,0.2-0.2,0.5,0,0.7
			c0.5,0.6,1.6,0.5,2.1-0.1C1762.8,640.1,1762.9,639.7,1762.8,639.2z"/>
		<path class="st0" d="M1751.9,655.7C1751.9,655.7,1751.9,655.6,1751.9,655.7c0-0.1-0.1-0.1-0.1-0.2c0-0.1-0.1-0.1-0.1-0.2
			c-0.1-0.1-0.2-0.1-0.3-0.2c-0.1,0-0.2,0-0.2,0c-0.2,0-0.3,0-0.4,0.1c-0.1,0-0.1,0.1-0.2,0.2s-0.1,0.1-0.1,0.2c0,0-0.1,0.1-0.1,0.2
			c0,0,0,0,0,0.1c0,0.1,0,0.1,0,0.2c0,0,0,0,0,0.1c0,0.1,0,0.2,0.1,0.3c0,0.1,0.1,0.1,0.2,0.2c0.1,0,0.1,0.1,0.2,0.1
			c0,0,0.1,0,0.1,0c0,0,0.1,0.1,0.1,0.1c0,0,0,0,0.1,0c0.1,0,0.1,0,0.2,0s0.1,0,0.2,0c0,0,0,0,0.1,0c0.1,0,0.3-0.1,0.4-0.2
			c0.1-0.1,0.1-0.1,0.1-0.2c0-0.1,0.1-0.1,0.1-0.2C1752,656,1752,655.9,1751.9,655.7L1751.9,655.7z"/>
		<path class="st0" d="M1146.7,92.9c-0.4-0.1-0.8,0-1.1,0.2c0,0-0.1,0.1-0.1,0.1c-0.1,0.1-0.2,0.2-0.3,0.3c0,0.1,0,0.3,0,0.4
			c0,0,0,0,0,0v0l0,0c0,0.3,0.1,0.6,0.2,0.9c0.1,0.2,0.2,0.3,0.4,0.4s0.4,0.2,0.6,0.2c0.2,0,0.4-0.1,0.5-0.3c0,0,0,0,0.1,0
			c0.1,0,0.3-0.1,0.4-0.2c0.2-0.1,0.3-0.3,0.4-0.5C1148,93.7,1147.4,93,1146.7,92.9L1146.7,92.9z"/>
		<g>
			<path class="st0" d="M1830.1,1135.1c-0.2-0.3-0.5-0.4-0.8-0.3c-0.6,0.2-0.8,0.9-0.7,1.5c0,0.1,0,0.3,0.1,0.4c0,0,0,0.1,0,0.1
				c0,0.1,0,0.1,0,0.1c-0.1,0-0.2,0.1-0.3,0.1c-0.2,0.2-0.4,0.4-0.4,0.7c0.1,0.4,0.6,0.5,0.9,0.4c0.6-0.2,0.9-0.9,0.8-1.5
				c0-0.2,0-0.3-0.1-0.5l0,0c0,0,0,0,0-0.1c0,0,0,0,0,0c0.2-0.1,0.4-0.2,0.5-0.4C1830.2,1135.7,1830.2,1135.4,1830.1,1135.1
				L1830.1,1135.1z"/>
			<polygon class="st0" points="1828.6,1137.3 1828.6,1137.3 1828.6,1137.3 1828.6,1137.3 			"/>
		</g>
		<path class="st0" d="M1173.8,1190.4c-0.1-0.3-0.3-0.4-0.6-0.3c-0.4,0.1-0.8,0.2-1.3,0.4c-0.1,0-0.2,0.1-0.3,0.2
			c-0.1,0.1-0.1,0.3-0.1,0.4c0.1,0.3,0.3,0.4,0.6,0.3c0.4-0.1,0.8-0.2,1.3-0.4c0.1,0,0.2-0.1,0.3-0.2
			C1173.8,1190.7,1173.9,1190.5,1173.8,1190.4z"/>
		<path class="st0" d="M715.6,946.1c-0.1,0.1-0.2,0.2-0.3,0.3c-0.5,0.5,0.2,1.2,0.7,0.7c0.1-0.1,0.2-0.2,0.3-0.3
			C716.7,946.4,716,945.7,715.6,946.1z"/>
	</g>
</g>
</svg>
