<?xml version="1.0" encoding="UTF-8"?>
<svg id="Layer_2" data-name="Layer 2" xmlns="http://www.w3.org/2000/svg" viewBox="0 0 1919 1270">
  <defs>
    <style>
      .cls-1 {
        fill: #000;
      }

      .cls-1, .cls-2 {
        stroke-width: 0px;
      }

      .cls-2 {
        fill: #fff;
      }
    </style>
  </defs>
  <g id="Layer_1-2" data-name="Layer 1">
    <rect class="cls-1" width="1919" height="1270"/>
    <g>
      <path class="cls-2" d="M1014.54,64.6c-.04-.05-.09-.1-.15-.14.08-.34-.11-.65-.37-.84-.76-.55-1.82-.44-2.57.07-.76.52-1.32,1.34-1.37,2.27-.05.95.63,1.88,1.57,2.09.9.2,1.82-.16,2.47-.77.34-.31.66-.76.76-1.22.11-.49-.05-1.05-.34-1.46ZM1011.62,66.33s0-.01,0-.02c-.01-.03-.02-.06-.03-.1,0,0,0-.03-.01-.05,0-.06,0-.12,0-.18,0-.02,0-.05.02-.07.02-.07.04-.13.06-.19.01-.02.02-.05.03-.07.04-.07.07-.13.12-.2.02-.02.03-.05.05-.07.1-.11.2-.21.32-.31.03-.02.06-.04.09-.06.07-.04.14-.08.21-.12.03-.01.06-.02.09-.03,0,0,.02,0,.02,0-.2.56-.4,1.13-.6,1.69,0,.01,0,.02,0,.04-.01.02-.02.03-.04.04,0,0-.01,0-.02,0,0,0,0,0,0,0-.03-.02-.07-.04-.1-.06,0,0,0,0,0,0-.02-.02-.04-.03-.05-.04-.03-.03-.05-.06-.08-.09-.02-.03-.04-.06-.06-.1Z"/>
      <path class="cls-2" d="M1389.31,107.51c-1.13,0-1.13,1.75,0,1.75s1.13-1.75,0-1.75Z"/>
      <path class="cls-2" d="M138.79,60s-.05-.08-.08-.12c-.1-.14-.2-.25-.37-.3-.14-.04-.26-.02-.39.01-.04,0-.08.02-.12.03-.16.03-.31.11-.39.26-.05.09-.1.24-.07.34.04.15.11.28.25.36.11.06.23.08.35.1.04,0,.08.02.13.02.08.02.15.01.23-.01.05-.01.11-.03.15-.06.1-.06.17-.15.24-.24.03-.04.05-.08.08-.12.05-.07.05-.2,0-.28Z"/>
      <path class="cls-2" d="M323.99,172.61l-1.66-1.66c-.19-.19-.52-.2-.71,0-.18.2-.2.51,0,.71l1.66,1.66c.19.19.52.2.71,0,.18-.2.2-.51,0-.71Z"/>
      <g>
        <path class="cls-2" d="M159.6,127.65s0,0,0,0c0,0,0,0,.01,0,.01,0,.02,0,.04-.01-.01,0-.04,0-.05.01Z"/>
        <path class="cls-2" d="M159.74,125.38c-.94-.06-1.52.8-1.45,1.67.03.45.18.92.51,1.25.1.1.22.18.34.23-.03,0-.06,0-.07,0-.1-.02-.21-.04-.31-.07-.06-.02-.11-.03-.16-.05-.02,0-.04-.01-.06-.02-.01,0-.03-.01-.04-.02-.11-.05-.21-.11-.31-.17-.05-.03-.09-.06-.14-.1,0,0-.07-.06-.09-.08-.09-.08-.17-.16-.25-.25-.02-.02-.04-.04-.06-.07,0,0,0,0,0-.01,0,0,0,0,0,0-.04-.05-.07-.11-.11-.16-.14-.23-.45-.32-.68-.18-.23.13-.32.45-.18.68.58.96,1.75,1.63,2.89,1.5.54-.06,1.1-.29,1.45-.72.32-.4.47-.9.45-1.4-.04-.96-.66-1.95-1.7-2.02ZM160.43,127.64s0,.02,0,.03c0,0,0,0,0,0-.02.07-.03.14-.05.21,0-.02,0-.04-.02-.05-.15-.26-.43-.29-.68-.18.12-.05.04-.03-.02,0,.01,0,.02.01,0,.01,0,0-.02,0-.03,0,0,0,0,0,0,0,0,0,0,0,0,0,0,0,0,0,0,0,0,0,0,0,0,0-.01,0-.02,0-.03,0,0,0,0,0,0,0,0,0,0,0,0,0-.01,0-.04-.03-.05-.04-.02-.02-.03-.04-.05-.05,0,0,0,0,0,0-.03-.05-.06-.11-.09-.16,0,0,0,0,0,0-.01-.03-.02-.06-.03-.09-.02-.06-.03-.13-.05-.2,0-.03,0-.06,0-.1,0-.07,0-.14,0-.21,0-.03.01-.06.02-.09,0-.03.02-.06.03-.09,0,0,0,0,0-.01.01-.02.02-.05.03-.07,0,0,0,0,0,0,0,0,0,0-.01,0,0,0,.01-.01.02-.03,0,0,0,0,0-.02.01-.02.01-.02.01,0,0,0,.01-.01.01-.01,0,0,.01-.01.02-.02.02-.01.03-.02.05-.03,0,0,0,0,0,0,.02,0,.05-.01.07-.02,0,0,0,0,.01,0,0,0,0,0,0,0,.05,0,.09,0,.13,0,0,0,.01,0,.02,0,.03.01.07.02.1.02.01,0,.02,0,.04.01.05.03.1.06.15.09,0,0,.02.01.03.03.04.03.07.07.1.1,0,0,0,.01.01.02.02.03.04.06.06.09.02.03.04.07.06.1,0,.01.03.06.04.08,0,.02.02.05.02.06.01.04.02.08.03.11.01.04.02.08.03.12,0,.03.01.07.01.08,0,.07.01.14.01.21,0,.04,0,.08,0,.12Z"/>
        <path class="cls-2" d="M159.41,126.47s-.01.01-.02.02c0,0,0,.01-.01.02.02,0,.03-.03.04-.05Z"/>
      </g>
      <path class="cls-2" d="M274.05,139.32c-.55-.55-1.11-1.11-1.66-1.66-.19-.19-.52-.2-.71,0-.18.2-.2.51,0,.71.55.55,1.11,1.11,1.66,1.66.19.19.52.2.71,0,.18-.2.2-.51,0-.71Z"/>
      <g>
        <path class="cls-2" d="M106,367.63s0,0,0,0c0,0,0-.01,0-.02,0-.01,0,0,0,.03Z"/>
        <path class="cls-2" d="M106.85,366.99c-.84-.91-2.44-.9-3.3-.03-.28.29-.45.64-.54,1.01-.27.48-.33,1.08-.04,1.57.12.19.27.31.43.39.17.23.37.44.63.6.14.09.36.1.5,0,.4.12.85,0,1.19-.22.51-.33.81-.86,1-1.42.09-.25.15-.51.19-.77.03-.17.05-.33.07-.5.03-.24.03-.43-.15-.62ZM106,367.66s0-.02,0-.02c0,0,0,0,0,.01-.02.14-.04.27-.07.41-.05.25-.14.49-.22.73,0,0,0,0,0,0,0,0,0,0,0,0-.01.02-.02.05-.03.07-.03.05-.05.1-.08.15,0,0,0,0,0,.01.16-.55.15-1.15-.06-1.69,0,0,.02,0,.02,0,.04.01.09.02.13.04.04.01.15.07.06.02.08.05.16.09.24.14,0,0,.01,0,.03.02,0,0,0,0,0,0,0,.01,0,.02,0,.03,0,0,0,.01,0,.02,0,0,0,.02,0,.03Z"/>
      </g>
      <path class="cls-2" d="M84.55,387.14c-.1-.09-.22-.15-.35-.15-.12,0-.27.05-.35.15-.09.1-.15.22-.15.35,0,.12.05.26.14.35,0,0,0,0,0,0-.01.02-.03.05-.04.07-.02.03-.05.05-.07.07-.02.02-.05.03-.07.04-.08-.09-.24-.15-.35-.15s-.27.05-.35.15c-.09.1-.15.22-.15.35,0,.04.01.09.02.13.02.08.07.16.13.22.16.19.41.29.66.3.2,0,.42-.06.59-.16.37-.22.63-.6.66-1.03.01-.26-.11-.54-.3-.71Z"/>
      <path class="cls-2" d="M116.81,332.36c-.09-.09-.23-.15-.35-.15-.13,0-.26.05-.35.15-.09.1-.15.22-.15.35v1.07c0,.13.06.26.15.35s.23.15.35.15c.13,0,.26-.05.35-.15.09-.1.15-.22.15-.35v-1.07c0-.13-.06-.26-.15-.35Z"/>
      <g>
        <path class="cls-2" d="M143.62,387.15c-.12-.24-.47-.32-.68-.18-.24.16-.3.43-.18.68,0,0,0,0,0,0,0,.02.01.03.02.05,0,.01.02.06.03.11,0,0,0,.02,0,.02,0,.03,0,.05,0,.08,0,.01,0,.05,0,.08,0,0,0,0,0,.02,0,.01,0,.02,0,.03,0,.03-.01.05-.02.08-.01.05-.03.1-.05.15,0,.02-.02.04-.03.06-.03.05-.05.1-.08.14-.01.02-.03.05-.05.07,0,0,0,0,.01-.01,0,0,0,.01-.02.02-.01.01-.02.03-.03.04-.02.02-.04.05-.06.07-.04.04-.08.08-.12.12-.01.01-.03.02-.04.04,0,0,0,0,0,0-.09.06-.18.11-.28.16-.02,0-.04.02-.07.02-.05.02-.1.03-.16.04-.01,0-.02,0-.04,0-.01,0-.03,0-.04,0-.01,0-.07,0-.12,0-.01,0-.03,0-.04,0-.03,0-.05-.01-.08-.02-.02,0-.05-.02-.07-.02,0,0-.01,0-.02,0-.23-.12-.55-.07-.68.18-.12.23-.07.56.18.68.6.3,1.28.24,1.84-.12.51-.32.94-.86,1.04-1.46.07-.4.02-.77-.16-1.14Z"/>
        <path class="cls-2" d="M142.59,388.56h0s-.05.05-.04.04c.01-.01.02-.03.03-.04,0,0,0,0,0,0Z"/>
      </g>
      <path class="cls-2" d="M702.87,560.88c-.16-.22-.43-.33-.68-.18-.21.13-.34.47-.18.68.09.12.18.25.25.39.03.06.06.13.09.19,0,0,0,0,0,0,0,0,0,0,0,.03,0,.03.02.06.03.08-.13-.09-.28-.16-.46-.17-.36-.01-.68.23-.76.59-.06.32.02.64.17.92.09.17.23.33.39.45-.02.03-.04.06-.06.07-.02.02-.04.04-.06.06.07-.08.04-.02,0,0-.02.01-.04.02-.06.03-.01,0-.02.01-.03.02-.02,0-.04.01-.06.02-.01,0-.02,0-.03,0-.06,0-.12,0-.18,0-.27-.03-.5.25-.5.5,0,.29.23.47.5.5.75.08,1.36-.5,1.59-1.17.1-.06.19-.13.26-.22.7-.81.33-2.04-.24-2.81Z"/>
      <path class="cls-2" d="M676.59,658.53c0-.26-.23-.51-.5-.5-.27.01-.5.22-.5.5,0,.71.01,1.43.02,2.14,0,.26.23.51.5.5.27-.01.5-.22.5-.5,0-.71-.01-1.43-.02-2.14Z"/>
      <path class="cls-2" d="M122.12,1091.47c-.06-.23-.26-.35-.48-.37-1.45-.13-2.62,1.32-2.37,2.7.05.27.37.42.62.35.28-.08.4-.35.35-.62-.12-.65.4-1.24,1.01-1.39.28,1.56-.04,3.17-.9,4.51-.35.54.52,1.05.86.5,1.08-1.67,1.4-3.76.92-5.69Z"/>
      <path class="cls-2" d="M166.11,617.45c-.09-.09-.23-.15-.35-.15-.13,0-.26.05-.35.15-.09.1-.15.22-.15.35v1.07c0,.13.06.26.15.35.09.09.23.15.35.15.13,0,.26-.05.35-.15.09-.1.15-.22.15-.35v-1.07c0-.13-.06-.26-.15-.35Z"/>
      <g>
        <path class="cls-2" d="M143.31,640.2s0,0,0-.01c0,0,0,0,0,0-.01.04,0,.05,0,.02Z"/>
        <path class="cls-2" d="M143.3,640.27s0,0,0,0c-.02.04-.01.06,0,0Z"/>
        <path class="cls-2" d="M144.65,638.67c-.81-.69-2.29-.64-2.81.39-.06.12-.08.26-.05.38-.14.34-.17.74-.07,1.09.07.23.2.45.38.61.06.05.11.09.18.13.02.01.04.02.06.03,0,0,.01,0,.02,0,.14.06.16.07.04.03,0,.03.09.06.12.07.08.04.17.08.25.11.48.17,1.05.05,1.48-.21.43-.26.8-.7.89-1.21.09-.53-.08-1.07-.49-1.42ZM142.81,640.42s0,0,0,0c0,0,0,0,0,0,.08.02.02,0,0,0,0,0-.01,0-.02-.01-.02-.02-.04-.04-.05-.05,0,0,0,0,0,0-.01-.02-.02-.04-.04-.07,0,0,0-.02,0-.03,0-.03-.01-.06-.02-.1,0,0,0-.01,0-.02,0-.03,0-.07,0-.11,0,0,0-.02,0-.03,0,0,0,.01,0,.02,0,0,0-.02,0-.03,0,0,0-.02,0-.02,0-.02,0,0,0-.01,0-.02,0-.04.01-.05,0-.03.02-.06.03-.09,0,0,0,0,0,0,.02-.03.04-.07.06-.1,0,0,0,0,0,0,0,0,0,0,0,0,.02-.02.04-.04.06-.05,0,0,.01,0,.02-.01,0,0,0,0,.01,0,.02,0,.05-.01.07-.02.02,0,.03,0,.05,0,0,0,.01,0,.02,0,0,0,.02,0,.03,0,.02.01.05.04.08.05,0,0,.02.02.03.03.01.01.03.03.04.04.02.03.04.06.06.09,0,.01.02.03.02.04.02.07.04.13.06.2,0,.02,0,.04,0,.06,0,.01,0,.03,0,.04,0-.01,0-.02,0-.03,0,0,0,.02,0,.03,0,0,0,0,0,0,0,0,0,0,0,0,0,.02-.01.05-.01.07,0-.01,0-.02.02-.03-.01.01-.02.05-.03.06,0,0-.01.02-.02.03-.04.04-.14.11-.01.02-.08.05-.13.13-.18.21,0,0-.01,0-.02,0-.02,0-.04-.02-.05-.02-.04-.02-.07-.04-.1-.07-.02-.01-.07-.03-.1-.05Z"/>
        <path class="cls-2" d="M142.67,639.96s0,.02,0,.04c0,0,0,0,0,0,.01-.04.01-.05,0-.04Z"/>
      </g>
      <g>
        <path class="cls-2" d="M1195.27,623.04c-.3-.45-.81-.68-1.34-.71-.28-.02-.57.05-.82.18-.3.15-.49.41-.61.71-.04.11,0,.28.05.39.02.04.06.07.1.11-.13.12-.22.31-.15.49.11.29.28.52.54.68.22.14.48.2.74.22.47.03,1.01-.15,1.33-.51.38-.42.47-1.06.15-1.55ZM1193.97,624.09s-.02,0-.04,0c-.04,0-.09,0-.13,0-.01,0-.02,0-.04,0-.04,0-.08-.02-.11-.03,0,0-.02,0-.03-.01-.03-.01-.06-.03-.08-.05-.01,0-.02-.02-.03-.03,0,0-.01-.01-.01-.02-.01-.02-.02-.04-.03-.06,0,0,0-.02-.01-.03,0-.01,0,0,0,.01-.03-.07-.07-.13-.13-.18.06-.06.12-.13.15-.22h0s-.06.12-.02.05c0-.02.02-.03.03-.05,0,0,.01-.02.02-.02.02-.02.03-.03.05-.05.01,0,.02-.01.03-.02.02,0,.03-.02.05-.03,0,0,0,0,0,0,.02,0,.04,0,.06-.01,0,0,.05,0,.08-.01-.04,0-.09,0-.03,0,.01,0,.02,0,.03,0,0,0,.03,0,.03,0,0,0-.01,0-.02,0,.01,0,.03,0,.04,0,.04,0,.08,0,.11,0,.01,0,.02,0,.03,0,.08.02.15.03.23.06,0,0,0,0,0,0,.04.02.08.04.11.06,0,0,.01,0,.02.01.02.02.05.04.07.07,0,0,0,0,.01.01.01.02.03.05.04.07,0,0,0,.02,0,.03,0,0,0,.02,0,.03,0,.03,0,.06,0,.08,0,0,0,.02,0,.03,0,.01,0,.02,0,.03-.01.02-.03.05-.04.07,0,0,0,0,0,.01-.02.02-.05.04-.07.07,0,0-.02.01-.03.02-.03.02-.07.04-.11.06,0,0,0,0,0,0-.04.01-.08.03-.12.04-.03,0-.06.01-.09.02Z"/>
        <polygon class="cls-2" points="1193.78 623.32 1193.77 623.32 1193.78 623.32 1193.78 623.32"/>
      </g>
      <path class="cls-2" d="M1187.51,721.42c-.09-.09-.23-.15-.35-.15-.13,0-.26.05-.35.15-.09.1-.15.22-.15.35v1.07c0,.13.06.26.15.35.09.09.23.15.35.15.13,0,.26-.05.35-.15.09-.1.15-.22.15-.35v-1.07c0-.13-.06-.26-.15-.35Z"/>
      <g>
        <path class="cls-2" d="M1177.85,708.19c-.11-.36-.39-.64-.71-.83-.33-.19-.75-.31-1.12-.21-.21.05-.41.19-.52.37-.14.23-.14.47-.1.72.03.26.38.42.61.35.24-.08.34-.26.35-.47.03,0,.05.01.08.02.03,0,.06.02.09.03,0,0,0,0,0,0,0,0,0,0,.02,0,.06.03.12.07.18.1,0,0,0,0,0,0h0s.06.06.09.09c0,0,.01.01.02.02.01.02.03.04.03.05,0,0,0,0,0,0,0,.02,0,.04.02.06,0,0,0,0,0,0,0,0,0,.01,0,.02-.02.04-.05.08-.07.11-.02.02-.03.03-.05.05-.02.02-.03.03-.05.05,0,0-.02.01-.03.03,0,0-.01.01-.02.01-.02.01-.05.03-.07.04-.02.01-.04.02-.06.03-.02,0-.03.02-.05.02-.03.02-.02,0,.04-.02-.04.06-.24.07-.3.08,0,0,0,0,0,0-.01,0-.03,0-.04,0-.06,0-.12,0-.18,0-.07,0-.14,0-.21,0-.03,0-.06,0-.1,0,0,0,0,0,0,0-.13-.03-.27-.05-.4-.08-.13-.03-.25-.08-.37-.12,0,0-.02,0-.04-.01-.02,0-.05-.02-.06-.03,0,0-.01,0-.02-.01,0-.06,0-.12,0-.18,0-.04,0-.07,0-.11,0-.01,0,0,0-.01,0,0,0,0,0-.02.02-.08.03-.16.06-.23.01-.04.02-.07.04-.11,0,0,0,0,0-.01,0,0,0,0,0,0,.04-.08.08-.16.12-.23.03-.06.07-.11.11-.16.01-.01.03-.04.04-.04.03-.03.06-.07.09-.1.06-.06.12-.11.18-.17,0,0,0,0,0,0,0,0,0,0,0,0,.03-.02.06-.04.09-.06.07-.04.14-.09.21-.12.02,0,.07-.03.08-.04.02,0,.04-.02.06-.02.07-.02.14-.04.21-.06,0,0,.05,0,.08-.01.03,0,.07,0,.08,0,.07,0,.15,0,.22,0,0,0,0,0,0,0,0,0,0,0,0,0,.05.01.1.02.15.03.25.07.55-.08.62-.35.06-.26-.08-.54-.35-.61-1.03-.28-2.06.25-2.67,1.08-.29.4-.46.89-.48,1.38,0,.26.02.63.18.84.1.12.24.18.38.24.13.06.27.12.41.17.87.31,2.03.37,2.72-.36.3-.32.49-.76.35-1.2Z"/>
        <path class="cls-2" d="M1176.9,708.48s0-.01-.01-.02c0,0,0,.03.01.04,0,0,0-.01,0-.02Z"/>
      </g>
      <path class="cls-2" d="M1665.49,234.97c-.03-.12-.12-.24-.23-.3-.23-.12-.55-.07-.68.18-.22.43-.45.85-.67,1.28-.06.12-.09.25-.05.39.03.12.12.24.23.3.23.12.55.07.68-.18.22-.43.45-.85.67-1.28.06-.12.09-.25.05-.39Z"/>
      <g>
        <path class="cls-2" d="M1690.97,289.85s0,.02,0,.03c0,0,0,0,0,0,0,0,0,0,0,0,0-.03,0-.05,0-.05,0,0,0,0,0,0Z"/>
        <path class="cls-2" d="M1694.81,288.39c-.37.1-.71.27-1.02.5-.08-.18-.17-.35-.3-.5-.2-.24-.48-.43-.78-.53-.29-.1-.57-.08-.85.01-.67-.03-1.28.36-1.6.95-.33.62-.4,1.36-.23,2.04.17.71.65,1.31,1.34,1.56.95.35,1.98,0,2.72-.62.85-.7,1.38-1.83,1.34-2.93,0-.33-.31-.57-.63-.48ZM1692.44,291.55s-.03,0-.04,0c-.01,0-.03,0-.04,0-.06,0-.13,0-.19,0-.06,0-.11,0-.17,0,0,0,0,0,0,0,0,0,0,0,0,0-.02,0-.05,0-.07-.01-.06-.01-.11-.03-.17-.04-.04-.01-.19-.08-.06-.02-.07-.04-.14-.07-.2-.11-.01,0-.02-.02-.03-.02-.03-.02-.05-.05-.08-.07-.03-.03-.05-.05-.08-.08,0,0-.03-.03-.04-.05-.01-.02-.03-.04-.04-.05-.02-.04-.05-.07-.07-.11-.02-.03-.03-.07-.05-.1,0,0,0,0,0-.01,0,0,0,0,0,0-.03-.08-.06-.17-.08-.25-.02-.06-.03-.13-.04-.19,0-.01,0-.03,0-.06,0-.04,0-.09,0-.13,0-.08,0-.16,0-.24,0-.04,0-.07,0-.11,0,0,0,.01,0,.03,0-.01,0-.02,0-.04,0-.02,0-.04,0-.04.01-.07.03-.14.05-.22.01-.04.02-.07.03-.11,0-.03.05-.11.04-.1.02-.05.04-.1.07-.14.02-.03.04-.06.06-.09,0,0,.01-.02.02-.03.05-.05.09-.1.14-.14.02-.01.02-.02.03-.02.02-.01.04-.03.07-.04.02-.01.05-.02.07-.04,0,0,.02,0,.02,0,.03,0,.07-.02.1-.03.01,0,.03,0,.04,0,.11,0,.26.01.36-.02,0,0,.21-.07.08-.03.03,0,.05-.01.08-.02,0,0,.01,0,.02,0,.01,0,.03,0,.04,0,.02,0,.03,0,.05,0,0,0,.01,0,.03,0,.02,0,.04.01.06.02,0,0,0,0,.01,0,.05.02.09.05.14.08,0,0,.02.01.03.02.01,0,.03.02.03.03.05.04.09.09.13.13,0,0,0,0,0,0,0,.01.04.06.04.06.02.04.04.08.06.11,0,0,.03.08.04.1.01.05.01.17.02.06,0,.05,0,.09,0,.14,0,0,0,0,0,0,0,.03-.02.05-.02.08-.02.03-.04.06-.06.1-.07.1-.08.23-.05.35-.1.23-.19.46-.23.71-.04.26.07.52.33.6-.01,0-.03.02-.04.02-.03.01-.07.03-.1.04-.1.04-.21.06-.32.08Z"/>
      </g>
      <path class="cls-2" d="M1695.15,264.24c-.17-.34-.54-.59-.91-.66-.22-.04-.46-.05-.68.02-.26.09-.47.25-.62.48-.12.18-.07.44.08.59-.08.07-.15.15-.17.25-.03.14-.01.26.05.39.19.39.61.59,1.02.61.37.02.79-.13,1.04-.4.33-.35.4-.84.19-1.27Z"/>
      <path class="cls-2" d="M1709.1,285.93c-.11.11-.23.23-.34.34-.46.46.25,1.16.71.71l.34-.34c.46-.46-.25-1.16-.71-.71Z"/>
      <path class="cls-2" d="M1682.67,285.2c-.1-.09-.22-.15-.35-.15h-1.07c-.13,0-.26.06-.35.15-.09.09-.15.23-.15.35,0,.13.05.26.15.35.1.09.22.15.35.15h1.07c.13,0,.26-.06.35-.15.09-.09.15-.23.15-.35,0-.13-.05-.26-.15-.35Z"/>
      <path class="cls-2" d="M1773.77,551c-.1-.09-.22-.15-.35-.15h-1.07c-.13,0-.26.06-.35.15-.09.09-.15.23-.15.35,0,.13.05.26.15.35.1.09.22.15.35.15h1.07c.13,0,.26-.06.35-.15s.15-.23.15-.35c0-.13-.05-.26-.15-.35Z"/>
      <path class="cls-2" d="M1846.65,603.52c-.1-.09-.22-.15-.35-.15h-1.07c-.13,0-.26.06-.35.15-.09.09-.15.23-.15.35,0,.13.05.26.15.35.1.09.22.15.35.15h1.07c.13,0,.26-.06.35-.15.09-.09.15-.23.15-.35,0-.13-.05-.26-.15-.35Z"/>
      <path class="cls-2" d="M1776.26,653.08c.05-.19.06-.4,0-.62-.07-.24-.36-.41-.61-.34-.09-.06-.19-.12-.31-.16-.16-.06-.33-.08-.5-.08-.14-.13-.31-.24-.49-.31-.24-.08-.51-.06-.74.06-.28.16-.42.47-.48.77-.1.49-.05.98.1,1.44,0,0-.01,0-.02.01-.21.15-.34.44-.18.68.13.21.45.34.68.18.37.46.87.82,1.45.96.2.05.47-.03.56-.23.35-.71.71-1.57.53-2.38Z"/>
      <path class="cls-2" d="M1762.79,639.25c-.09-.39-.39-.73-.74-.91-.43-.23-.95-.27-1.37,0-.22.14-.33.45-.18.68.14.22.45.32.68.18,0,0,.02-.01.03-.02.03,0,.05-.02.08-.02.03,0,.07,0,.1,0,.04,0,.08.02.12.04.05.02.09.05.13.08.03.03.07.06.1.09.02.03.04.06.06.09,0,.02.01.04.02.07,0,.02,0,.05,0,.07,0,.02,0,.04-.01.05-.01.02-.02.04-.04.06-.02.03-.05.05-.08.07-.04.02-.07.05-.11.07-.05.02-.1.03-.16.04-.05,0-.09,0-.14,0-.03,0-.06-.01-.08-.02-.02-.01-.05-.03-.07-.04-.01-.01-.02-.02-.03-.03-.18-.19-.53-.19-.71,0-.19.21-.19.5,0,.71.54.58,1.56.49,2.08-.07.3-.32.43-.76.32-1.19Z"/>
      <path class="cls-2" d="M1751.95,655.67s0-.03-.01-.04c-.02-.05-.04-.11-.07-.16-.04-.06-.08-.12-.14-.17-.1-.09-.17-.13-.3-.17-.07-.02-.15-.03-.23-.03-.15,0-.31.05-.43.14-.06.04-.13.09-.18.15-.05.06-.1.12-.14.19-.03.05-.05.11-.07.17,0,.02-.01.04-.02.06-.02.06-.02.12-.03.19,0,.02,0,.04,0,.06,0,.14.03.23.09.35.03.07.09.14.15.19.05.05.1.08.16.1.03.01.06.01.08.02.04.02.06.06.1.08.02,0,.03,0,.05.01.06,0,.12.02.18.02.06,0,.12-.01.18-.02.02,0,.03,0,.05-.01.14-.05.27-.13.37-.24.05-.06.1-.12.13-.18.03-.07.07-.14.08-.21.04-.15.04-.3,0-.45Z"/>
      <path class="cls-2" d="M1146.72,92.86c-.39-.11-.79-.02-1.1.24-.04.03-.05.08-.08.11-.13.06-.24.16-.29.31-.04.14-.04.27-.03.4,0,0,0,.01,0,.02,0,0,0,.02,0,.02,0,0,0,0,0,0-.02.3.07.63.24.88.11.16.24.3.41.4.17.1.36.15.56.16.19.01.38-.13.46-.31.02,0,.04,0,.06,0,.13-.02.27-.08.38-.15.17-.12.35-.28.41-.49.22-.71-.34-1.43-1.01-1.61Z"/>
      <g>
        <path class="cls-2" d="M1830.09,1135.13c-.16-.3-.53-.37-.83-.26-.63.22-.78.92-.71,1.52.02.14.04.29.07.43,0,.02,0,.05,0,.07,0,.05,0,.09,0,.14-.13.02-.25.07-.35.14-.25.16-.45.41-.37.73.1.39.56.51.91.43.63-.15.86-.91.81-1.49-.01-.15-.04-.3-.07-.46,0,0,0,0,0,0,0-.02,0-.04,0-.06.01,0,.02,0,.04,0,.2-.05.36-.23.46-.42.12-.24.19-.52.05-.76Z"/>
        <polygon class="cls-2" points="1828.56 1137.32 1828.56 1137.32 1828.56 1137.32 1828.56 1137.32 1828.56 1137.32"/>
      </g>
      <path class="cls-2" d="M1173.82,1190.42c-.08-.26-.35-.42-.61-.35-.42.12-.85.24-1.27.36-.12.03-.23.12-.3.23-.06.11-.09.27-.05.39.08.26.35.42.61.35.42-.12.85-.24,1.27-.36.12-.03.23-.12.3-.23.06-.11.09-.27.05-.39Z"/>
      <path class="cls-2" d="M715.57,946.14c-.11.11-.23.23-.34.34-.46.46.25,1.16.71.71.11-.11.23-.23.34-.34.46-.46-.25-1.16-.71-.71Z"/>
    </g>
  </g>
</svg>