<?xml version="1.0" encoding="UTF-8"?>
<svg id="Layer_2" data-name="Layer 2" xmlns="http://www.w3.org/2000/svg" xmlns:xlink="http://www.w3.org/1999/xlink" viewBox="0 0 124.42 288.03">
  <defs>
    <style>
      .cls-1, .cls-2, .cls-3, .cls-4, .cls-5, .cls-6, .cls-7, .cls-8 {
        stroke: #263238;
        stroke-linecap: round;
        stroke-linejoin: round;
      }

      .cls-1, .cls-9, .cls-5 {
        fill: none;
      }

      .cls-1, .cls-4, .cls-8 {
        stroke-width: .75px;
      }

      .cls-2 {
        fill: #858585;
      }

      .cls-10 {
        isolation: isolate;
        opacity: .2;
      }

      .cls-10, .cls-9, .cls-11, .cls-12, .cls-13 {
        stroke-width: 0px;
      }

      .cls-11, .cls-3, .cls-4 {
        fill: #fff;
      }

      .cls-12, .cls-6, .cls-8 {
        fill: #263238;
      }

      .cls-14 {
        clip-path: url(#clippath);
      }

      .cls-7, .cls-13 {
        fill: #dae120;
      }
    </style>
    <clipPath id="clippath">
      <polygon class="cls-9" points="60.65 47.81 62.47 56.78 42.25 57.63 45.76 32.77 59.38 34.35 60.65 47.81"/>
    </clipPath>
  </defs>
  <g id="Layer_1-2" data-name="Layer 1">
    <g>
      <path class="cls-1" d="m30.38.38h59.32v172.62c0,16.57-13.43,30-30,30H.38V30.38C.38,13.81,13.81.38,30.38.38Z"/>
      <path class="cls-1" d="m32.22,8.21h49.64v162.94c0,13.25-10.75,24-24,24H8.22V32.21c0-13.25,10.75-24,24-24Z"/>
      <line class="cls-1" x1="16.58" y1="90.76" x2="14.58" y2="94.24"/>
      <line class="cls-1" x1="37.72" y1="54.15" x2="18.9" y2="86.75"/>
      <line class="cls-1" x1="55" y1="24.24" x2="40.74" y2="48.93"/>
      <line class="cls-1" x1="58.01" y1="19.01" x2="56.5" y2="21.63"/>
      <line class="cls-1" x1="22.58" y1="179.6" x2="20.87" y2="182.57"/>
      <line class="cls-1" x1="26.54" y1="172.74" x2="24.72" y2="175.89"/>
      <line class="cls-1" x1="50.69" y1="130.92" x2="30.4" y2="166.04"/>
      <line class="cls-1" x1="68.63" y1="99.82" x2="52.76" y2="127.32"/>
      <line class="cls-1" x1="72.57" y1="93.02" x2="70.99" y2="95.74"/>
      <line class="cls-1" x1="45.04" y1="157.23" x2="30.4" y2="182.57"/>
      <line class="cls-1" x1="63.74" y1="124.85" x2="47.17" y2="153.54"/>
      <line class="cls-1" x1="67.62" y1="118.11" x2="65.67" y2="121.51"/>
      <line class="cls-1" x1="14.58" y1="116.98" x2="12.35" y2="120.82"/>
      <line class="cls-1" x1="34" y1="83.32" x2="16.35" y2="113.89"/>
      <line class="cls-1" x1="58.25" y1="41.32" x2="36.08" y2="79.71"/>
      <line class="cls-1" x1="72.82" y1="16.08" x2="59.96" y2="38.36"/>
      <g id="freepik--character-1--inject-67">
        <polygon class="cls-11" points="60.65 47.81 62.47 56.78 42.25 57.63 45.76 32.77 59.38 34.35 60.65 47.81"/>
        <g class="cls-14">
          <path class="cls-8" d="m69.71,34.2l-16.91,5c.21,1.94.61,3.85,1.2,5.71,1,2.88,7.09,8,11,7.94s4.35-12.52,4.35-12.52l2.36-1.31c.53-.3.71-.97.41-1.5-.02-.04-.05-.07-.07-.11l-2.34-3.21Z"/>
        </g>
        <polygon class="cls-5" points="60.65 47.81 62.47 56.78 42.25 57.63 45.76 32.77 59.38 34.35 60.65 47.81"/>
        <path class="cls-6" d="m61.58,16.21s4.91,1,4.41-4.33-9.65-2.07-14.42-1.47-20.17,6.35-14.72,15.43c0,0-3.21,5.12,8.35,13.71,0,0,5.49-2.58,8.5,1.19l2.35-4.58,6-10.54-.47-9.41Z"/>
        <path class="cls-6" d="m61.22,15.41s4.7,2.62,7.4-.66c0,0,.3,7-7.4.66Z"/>
        <path class="cls-3" d="m61.71,14.68s7,7.37,6.76,12.42v4.61l3.7,4.16c.38.4.38,1.03-.02,1.41-.05.05-.1.09-.16.13l-2.15,1.49s.63,11.8-3.07,12.22-9.86-4-11.09-6.6c-.93-2.39-1.6-4.86-2-7.39-2.2-.6-3.82-2.47-4.09-4.74-.43-3.88,3.48-3.77,4.49-1.23l.82,2.07,2.54-.09s-1.45-3.66-.59-4.74,4.24-3.71,2.69-6.22-1.03-6.78,2.17-7.5Z"/>
        <path class="cls-1" d="m65.71,41.21c.6,1.06,1.81,1.62,3,1.39"/>
        <path class="cls-5" d="m63.87,27.13s1.59-2.21,3.1-.19"/>
        <path class="cls-12" d="m66.38,31.74c0,.69-.27,1.26-.64,1.27s-.69-.54-.71-1.23.27-1.26.64-1.27.69.51.71,1.23Z"/>
        <polygon class="cls-3" points="34.31 253.26 31.39 278.39 40.08 279.73 44.87 254.89 34.31 253.26"/>
        <path class="cls-7" d="m30.22,142.23s.35,14.56,5.49,24.8l1.17,38.64-5.93,62.26,13.19,1.26,12-65.12,4-59-29.92-2.84Z"/>
        <path class="cls-10" d="m58.28,173.43l-1.1-6.93-5-21.81-.92-.47-21-2s0,2.39.47,5.92l10.37,5.88c.24,3.69,1.08,7.32,2.47,10.75.4.96-.05,2.07-1.02,2.47-.28.12-.58.16-.88.14-1.07-.08-2,0-2,.7,0,1.62,7.82,6.85,7.82,6.85,0,0,7.89,25.5,7.61,34.92l1.07-5.8,2.11-30.62Z"/>
        <polygon class="cls-3" points="60.83 254.92 61.78 280.2 70.57 280.2 71.51 254.92 60.83 254.92"/>
        <path class="cls-6" d="m84.57,283.76c-2.9-.88-5.72-2.01-8.44-3.36-1.3-.81-3.12-3.46-4.46-4.21-.57-.24-1.21-.24-1.78,0-.64.52-.67,3.23-.67,3.23,0,0-1.13-2.76-1.95-3.23-1.14-.64-4.24-.83-5.25,0-1.68,1.37-2.29,6.13-2.62,8.27-.08.47,0,3.07,0,3.07h27v-1.19c0-1.16-.73-2.2-1.83-2.58Z"/>
        <path class="cls-7" d="m79.21,143.42l-2.16,58.41-3.61,66.69h-13.74s-2.88-51.19-2.16-66l-7.21-34.25s-7.57-10.1-5.77-22.35l34.65-2.5Z"/>
        <polygon class="cls-7" points="58.49 263.57 58.94 271.58 73.99 271.58 75.15 263.57 58.49 263.57"/>
        <polygon class="cls-7" points="29.85 262.88 29.54 270.89 44.51 272.32 46.44 264.45 29.85 262.88"/>
        <polygon class="cls-7" points="101.99 104.98 81.21 91.76 103.12 69.85 123.92 83.06 101.99 104.98"/>
        <polygon class="cls-4" points="103.18 100.45 86.46 89.82 104.09 72.2 120.81 82.83 103.18 100.45"/>
        <polygon class="cls-1" points="104.4 82.2 107.32 79.28 103.57 76.9 100.65 79.81 104.4 82.2"/>
        <polygon class="cls-1" points="99.88 86.74 102.79 83.82 99.04 81.43 96.12 84.35 99.88 86.74"/>
        <polygon class="cls-1" points="95.18 91.43 98.1 88.51 94.35 86.12 91.43 89.04 95.18 91.43"/>
        <path class="cls-2" d="m111.56,73.25l-2.76,2.77c-.48.48-.48,1.26,0,1.74.06.06.14.12.21.17l4,2.57c.91.58,2.1.45,2.86-.31l2.55-2.56-6.86-4.38Z"/>
        <path class="cls-2" d="m37.58,56.18l3.61-7.93s20.91-2.34,26.49,15.14l-30.1-7.21Z"/>
        <path class="cls-2" d="m25.71,62.94s-5.16,39.53-3.79,53.54c1.08,11.08,8.38,20.46,8.38,20.46l10.82-4.24-5.5-16.22s1.71-29.2,3.33-36l-13.24-17.54Z"/>
        <polygon class="cls-2" points="27.17 135.01 30.22 138.65 42.72 133.79 41.1 128.92 27.17 135.01"/>
        <path class="cls-2" d="m25.71,62.94s-1.63,22.71,3,38.67,0,42.17,0,42.17c0,0,21.31,13.79,54,3.24,0,0-4.05-77.6-9.46-81.92s-35.94-20.81-47.54-2.16Z"/>
        <path class="cls-10" d="m82.71,147.02s-1.39-26.6-3.62-49.52c-4.73-11.48-12.46-26.77-12.87-5.3-.6,31.05,18.51,29.22,3.37,34.63-6.85,2.6-14.51,2-20.88-1.62-.61-.31-1.36-.07-1.67.54-.22.43-.17.95.13,1.33,3.8,4.83,9.57,7.84,14,9.57,1,.38,1.5,1.5,1.12,2.5-.25.65-.83,1.12-1.52,1.23-14.26,2.11-25.44-5.47-30.57-9.88-.6,7.64-1.59,13.28-1.59,13.28,0,0,21.41,13.79,54.1,3.24Z"/>
        <path class="cls-2" d="m73.26,65.11c3.96,1.82,6.72,5.54,7.3,9.86,1.08,7.44,8,30.29,8,30.29l2.3-1.49c3.95,1.77,6.21,5.98,5.52,10.25,0,0-5.62,11-11.76,8.93-6.31-2.14-9.84-7.3-13-15.74-1.67-4.5-6.49-18.06-6.49-18.06"/>
        <path class="cls-1" d="m91.32,111.88c.04.59,0,1.18-.08,1.76"/>
        <path class="cls-1" d="m87.2,116.48s1.89-3,1.62-9.47c.91.69,1.6,1.62,2,2.69"/>
        <path class="cls-3" d="m92.38,103.14l7.21-5.14c.73-3.26,3.19-5.85,6.4-6.76,0,0,3.33-5.5,5.22-4.86s-2.25,2.88-2.61,5.76l1.53,2.05s5-.88,6.22-2.5c0,0-.27,3.43-2.25,4,0,0,0,2.61-1.35,2.52l-9.92,2.8-5.77,10.77-4.68-8.64Z"/>
        <path class="cls-1" d="m62.86,128.14c1.14-.11,2.27-.3,3.38-.58"/>
        <path class="cls-1" d="m34.51,111.76s10.63,16.26,26,16.48"/>
        <path class="cls-2" d="m89.26,103.32s7.52,5.68,6.8,12.53l2.71-5.19s-.09-4.37-6.31-9l-3.2,1.66Z"/>
        <path class="cls-4" d="m59.4,287.52h27v-1.19c0-.29-.05-.58-.14-.86h-26.9c0,.91.04,2.05.04,2.05Z"/>
        <path class="cls-6" d="m53.71,283.76c-2.9-.88-5.72-2.01-8.44-3.36-1.3-.81-3.12-3.46-4.45-4.21-.57-.25-1.22-.25-1.79,0-.64.52-.67,3.23-.67,3.23,0,0-1.12-2.76-1.95-3.23-1.14-.64-4.24-.83-5.25,0-1.68,1.37-2.29,6.13-2.62,8.27-.08.47,0,3.07,0,3.07h27v-1.19c0-1.16-.73-2.2-1.83-2.58Z"/>
        <path class="cls-4" d="m28.51,287.52h27v-1.19c0-.29-.05-.58-.14-.86h-26.9c0,.91.04,2.05.04,2.05Z"/>
        <path class="cls-1" d="m68.35,202.92s-2.87,4.95-7.52,3.06"/>
        <path class="cls-1" d="m48.33,204.65s-5.15,4.4-9.41,1.32"/>
        <polygon class="cls-13" points="102.07 76.55 102.79 80.13 109.18 80.13 103.99 78.92 104.24 76.49 102.07 76.55"/>
      </g>
    </g>
  </g>
</svg>