<?xml version="1.0" encoding="UTF-8"?>
<svg id="Layer_2" data-name="Layer 2" xmlns="http://www.w3.org/2000/svg" xmlns:xlink="http://www.w3.org/1999/xlink" viewBox="0 0 130.38 288.05">
  <defs>
    <style>
      .cls-1, .cls-2, .cls-3, .cls-4, .cls-5, .cls-6, .cls-7, .cls-8, .cls-9, .cls-10, .cls-11, .cls-12 {
        stroke-linecap: round;
        stroke-linejoin: round;
      }

      .cls-1, .cls-2, .cls-13, .cls-7, .cls-9 {
        fill: none;
      }

      .cls-1, .cls-2, .cls-5, .cls-6, .cls-12 {
        stroke-width: .75px;
      }

      .cls-1, .cls-3, .cls-4, .cls-5, .cls-6, .cls-7, .cls-8, .cls-9, .cls-10, .cls-11, .cls-12 {
        stroke: #263238;
      }

      .cls-2 {
        stroke: #7f7f7f;
      }

      .cls-3, .cls-14 {
        fill: #858585;
      }

      .cls-15 {
        clip-path: url(#clippath-2);
      }

      .cls-16 {
        opacity: .2;
      }

      .cls-16, .cls-13, .cls-17, .cls-18, .cls-19, .cls-14, .cls-20, .cls-21 {
        stroke-width: 0px;
      }

      .cls-16, .cls-17, .cls-20 {
        isolation: isolate;
      }

      .cls-22 {
        clip-path: url(#clippath-1);
      }

      .cls-17 {
        opacity: .5;
      }

      .cls-17, .cls-18, .cls-4, .cls-5 {
        fill: #fff;
      }

      .cls-19, .cls-8, .cls-10, .cls-12 {
        fill: #263238;
      }

      .cls-23 {
        clip-path: url(#clippath);
      }

      .cls-6, .cls-11, .cls-21 {
        fill: #dae120;
      }

      .cls-20 {
        opacity: .7;
      }

      .cls-8 {
        stroke-width: .5px;
      }

      .cls-9 {
        stroke-width: 1px;
      }
    </style>
    <clipPath id="clippath">
      <polygon class="cls-13" points="77.24 58.82 72.86 57.24 68.68 61.27 71.74 48.77 75.43 45.88 77.31 47.06 85.71 46.74 92.24 47.27 95.35 46.31 98.67 49.63 91.28 63.76 88.18 58.41 81.34 59.26 77.24 58.82"/>
    </clipPath>
    <clipPath id="clippath-1">
      <polygon class="cls-13" points="91.79 49.6 90.79 34.32 81.13 36.02 79.13 43.2 77.13 49.42 76.18 49.52 78.81 63.8 92.75 49.8 91.79 49.6"/>
    </clipPath>
    <clipPath id="clippath-2">
      <rect class="cls-13" x="92.83" y="119.59" width="23.39" height="36.41" rx="1.77" ry="1.77" transform="translate(-48.37 218.63) rotate(-80.68)"/>
    </clipPath>
  </defs>
  <g id="Layer_1-2" data-name="Layer 1">
    <g>
      <path class="cls-1" d="m40.69.38h59.32c16.57,0,30,13.43,30,30v172.62h-59.32c-16.57,0-30-13.43-30-30V.38Z"/>
      <path class="cls-1" d="m48.53,8.21h49.64c13.25,0,24,10.75,24,24v162.94h-49.64c-13.25,0-24-10.75-24-24V8.21Z"/>
      <line class="cls-1" x1="56.9" y1="90.76" x2="54.89" y2="94.24"/>
      <line class="cls-1" x1="78.04" y1="54.15" x2="59.22" y2="86.75"/>
      <line class="cls-1" x1="95.31" y1="24.24" x2="81.05" y2="48.93"/>
      <line class="cls-1" x1="98.33" y1="19.01" x2="96.81" y2="21.63"/>
      <line class="cls-1" x1="62.89" y1="179.6" x2="61.18" y2="182.57"/>
      <line class="cls-1" x1="66.85" y1="172.74" x2="65.04" y2="175.89"/>
      <line class="cls-1" x1="91" y1="130.92" x2="70.73" y2="166.04"/>
      <line class="cls-1" x1="108.95" y1="99.82" x2="93.08" y2="127.32"/>
      <line class="cls-1" x1="112.88" y1="93.02" x2="111.31" y2="95.74"/>
      <line class="cls-1" x1="85.35" y1="157.23" x2="70.73" y2="182.57"/>
      <line class="cls-1" x1="104.05" y1="124.85" x2="87.48" y2="153.54"/>
      <line class="cls-1" x1="107.94" y1="118.11" x2="105.98" y2="121.51"/>
      <line class="cls-1" x1="54.89" y1="116.98" x2="52.67" y2="120.82"/>
      <line class="cls-1" x1="74.32" y1="83.32" x2="56.67" y2="113.89"/>
      <line class="cls-1" x1="98.57" y1="41.32" x2="76.4" y2="79.71"/>
      <g id="freepik--character-2--inject-67">
        <polygon class="cls-4" points="57.15 261.61 56.59 278.11 65.13 278.52 68.24 261.61 57.15 261.61"/>
        <path class="cls-4" d="m40.44,283.17c2.88-1,7.86-2.7,9.73-3.87,1.5-.94,3.59-4,5.14-4.86.66-.28,1.4-.28,2.06,0,.25.28.42.63.47,1,.12.45.59.72,1.04.6.21-.06.4-.19.51-.38.24-.47.58-.88,1-1.2,1.32-.74,4.89-.95,6.06,0,1.94,1.59,2.64,7.07,3,9.54.09.54,0,3.54,0,3.54h-31.16v-1.37c0-1.36.86-2.57,2.15-3Z"/>
        <path class="cls-3" d="m69.47,287.52h-31.18v-1.37c0-.34.06-.68.17-1h31.05c0,1.05-.04,2.37-.04,2.37Z"/>
        <path class="cls-10" d="m62.54,133.7l-6.55,134.2,12,2s7.56-38.84,8.48-51.56c.22-3,0-12.05,0-12.05l8.49-41.79s5.59-5.16,6.24-29.73l-28.66-1.07Z"/>
        <path class="cls-20" d="m80.3,185.63c.46-1.94,1-3.85,1.65-5.75.1-.27.22-.52.34-.77.3-2.84.76-5.66,1.37-8.45.21-1.04.77-1.98,1.59-2.66.47-1.07,1.4-1.87,2.53-2.17-.37-2.58-.93-5.13-1.68-7.63-.76-2.62-2-5.13-2.37-7.84-.1-.7-.5-1.43-.37-1.51-.86-.33-1.7-.72-2.52-1.14l-.15-.12c-.77,12.67-.9,25.36-.39,38.04Z"/>
        <path class="cls-2" d="m61.97,210.45c2.12-.49,4.07-1.55,5.64-3.07"/>
        <polygon class="cls-11" points="54.41 270.45 68.92 271.63 70 266.93 54.41 265.71 54.41 270.45"/>
        <polygon class="cls-4" points="96.31 259.58 99.4 278.88 107.3 278.26 107.04 258.51 96.31 259.58"/>
        <path class="cls-4" d="m83.08,283.17c2.89-1,7.87-2.7,9.73-3.87,1.5-.94,3.6-4,5.14-4.86.66-.29,1.41-.29,2.07,0,.18.19.31.42.37.67.15.53.7.84,1.23.69.26-.07.48-.25.61-.48.2-.34.48-.64.8-.88,1.32-.74,4.89-.95,6.06,0,1.94,1.59,2.64,7.07,3,9.54.08.54,0,3.54,0,3.54h-31.15v-1.37c0-1.35.86-2.55,2.14-2.98Z"/>
        <path class="cls-3" d="m112.12,287.52h-31.18v-1.37c0-.34.05-.68.16-1h31.05c0,1.05-.03,2.37-.03,2.37Z"/>
        <path class="cls-10" d="m79.24,137.74s3,17.37,5.76,31.94c1.88,9.88,2,39.07,2,39.07l9.58,60.27,11.81-1.59s.14-37.1-1.19-49c-.3-2.65-.79-10.52-.79-10.52,0,0,.45-31.48,2.88-42,1.74-7.5,5.2-15.38,1-30.75l-31.05,2.58Z"/>
        <path class="cls-2" d="m89.59,210.45c1.2,1.66,2.99,2.81,5,3.21"/>
        <polygon class="cls-11" points="94.6 266.32 95.28 270.73 109.92 269.17 109.82 264.4 94.6 266.32"/>
        <path class="cls-3" d="m23.51,57.39l-3.23-5.43s-.78-8.87-2.58-10.6-5.8-6.82-6.37-5.82c-.9,1.6,2.43,4.45,2.43,4.45l.61,3.3s-5.39-3.88-6.91-3.88c0,0-4.3-5.09-5.82-5.1s.62,3.52.62,3.52c0,0-1.45-1.11-1.73-.42s1.87,3.05,1.87,3.05c0,0-.83.9.42,2.83-.35,1.27.03,2.63,1,3.53,1.66,1.32,10.58,6.37,10.58,6.37l3,7.06,6.11-2.86Z"/>
        <path class="cls-1" d="m3.58,40.6s1.18.48.69,2.21c.47.67.74,1.46.76,2.28.12,1.52,7.82.77,9.9,4"/>
        <line class="cls-1" x1="3.58" y1="38.74" x2="6.72" y2="42.05"/>
        <path class="cls-11" d="m56.85,56.02l-20.61,16.06-14.12-19.24-7.19,3.6s11.3,31.22,19.85,31.22c9.09,0,26.37-14.6,26.37-14.6,0,0,1.09-2.79-4.3-17.04Z"/>
        <path class="cls-1" d="m37.02,73.61c.48,1.02.84,2.1,1.07,3.21"/>
        <path class="cls-11" d="m56.85,56.02l4.39,58.11v24.14s25.29,3,50.24-.64l-.86-24.85,2.53-55.39s-11.58-8.37-29.36-8.37-26.94,7-26.94,7Z"/>
        <path class="cls-16" d="m111.48,137.63l-.8-22.27c-.43,10.73-12.27,6.7-14.95,6.2-2.87-.54-6.17,8.92-6.17,8.92,0,0-11,1.89-19.61,1.22s-8.74-8.53-8.74-8.53v15.1s25.32,3.04,50.27-.64Z"/>
        <path class="cls-6" d="m73.09,113.57c10.61-1.14,20.78-4.81,29.68-10.69"/>
        <path class="cls-6" d="m68.68,113.88s.85,0,2.35-.11"/>
        <polygon class="cls-21" points="77.24 58.82 72.86 57.24 68.68 61.27 71.74 48.77 75.43 45.88 77.31 47.06 85.71 46.74 92.24 47.27 95.35 46.31 98.67 49.63 91.28 63.76 88.18 58.41 81.34 59.26 77.24 58.82"/>
        <g class="cls-23">
          <polygon class="cls-17" points="77.24 58.82 72.86 57.24 68.68 61.27 71.74 48.77 75.43 45.88 77.31 47.06 85.71 46.74 92.24 47.27 95.35 46.31 98.67 49.63 91.28 63.76 88.18 58.41 81.34 59.26 77.24 58.82"/>
        </g>
        <polygon class="cls-7" points="77.24 58.82 72.86 57.24 68.68 61.27 71.74 48.77 75.43 45.88 77.31 47.06 85.71 46.74 92.24 47.27 95.35 46.31 98.67 49.63 91.28 63.76 88.18 58.41 81.34 59.26 77.24 58.82"/>
        <path class="cls-14" d="m91.79,49.6l-1-15.28-9.66,1.71-2,7.18-2,6.22-.95.1,2.63,14.28,13.94-14-.96-.21Z"/>
        <g class="cls-22">
          <path class="cls-8" d="m68.04,35.38c0,3.88.6,12.56,5.93,13.57,5.52,1.05,11.85-5.23,14.12-7.74.57-.62,1.01-1.35,1.31-2.14l1.21-3.21c.79.06,1.58-.11,2.28-.48h-24.85Z"/>
        </g>
        <path class="cls-7" d="m91.79,49.6l-1-15.28-9.66,1.71-2,7.18-2,6.22-.95.1,2.63,14.28,13.94-14-.96-.21Z"/>
        <path class="cls-12" d="m74.48,15.75s-4.57-3.48-2.33-6.22c1.17-1.42,2.69.45,2.69.45,0,0-.81-4.36,2.44-5,3-.56,2.88,2.88,2.88,2.88,0,0,1.55-2.95,4.26-2.29,2.16.52,1.33,3.58,1.33,3.58,0,0,2.88-3.58,5.86-2,2.57,1.35.45,4.59.45,4.59,0,0,3.06-1.08,4.77.64s0,4,0,4c0,0,3.37,0,3.52,2.52s-2.61,3-2.61,3c0,0,3.9,1.26,3.93,4.32s-2.58,2.08-2.58,2.08c0,0,1.62,2.88.27,4.41-.54.72-1.56.88-2.28.34-.13-.1-.24-.21-.34-.34,0,0,1.69,3.63-.45,4.69-1.53.75-2.43-1.09-2.43-1.09,0,0-1.29,3.14-2.85,1.22s-9.3-16.71-9.3-16.71l-7.23-5.07Z"/>
        <path class="cls-5" d="m73.16,15.89l-2.88,6c-.3.63-.45,1.31-.45,2v1.88l-1.59,4c-.08.21-.15.42-.2.64-.51,2.13-2.94,13.57,3,15.9,5.24,2.06,12.62-2.91,15.33-4.95.68-.51,1.25-1.14,1.68-1.87l1.8-2.92c1.57.47,3.26-.12,4.19-1.47,1.61-2.31,3.47-3.56,1.26-5.64s-4.25,1.25-4.25,1.25l.3-5.87-2.56-4.5-.13-2.83s-8.38-.93-14-4l-1.5,2.38Z"/>
        <path class="cls-3" d="m73.16,15.89l-2.88,6c-.3.63-.45,1.31-.45,2v1.88l-1.59,4c-.08.21-.15.42-.2.64-.51,2.13-2.94,13.57,3,15.9,5.24,2.06,12.62-2.91,15.33-4.95.68-.51,1.25-1.14,1.68-1.87l1.8-2.92c1.57.47,3.26-.12,4.19-1.47,1.61-2.31,3.47-3.56,1.26-5.64s-4.25,1.25-4.25,1.25l.3-5.87-2.56-4.5-.13-2.83s-8.38-.93-14-4l-1.5,2.38Z"/>
        <path class="cls-1" d="m78.26,36.38c-1.62,3.13-3.82,2.61-5.2,1.83"/>
        <path class="cls-19" d="m78.29,29.27c-.22.71-.67,1.2-1,1.1s-.44-.77-.22-1.48.67-1.21,1-1.1.44.77.22,1.48Z"/>
        <path class="cls-19" d="m71.61,27.2c-.22.72-.67,1.21-1,1.1s-.44-.77-.22-1.48.68-1.2,1-1.09.44.76.22,1.47Z"/>
        <path class="cls-1" d="m71.13,22.58c1.06-.3,2.17.32,2.47,1.39.01.05.02.1.03.14"/>
        <path class="cls-1" d="m76.88,25.31s2.33-2.45,3.9.15"/>
        <path class="cls-1" d="m73.68,27.83c-.43,1.94-1.83,3.53-3.7,4.19l1.82,2.89"/>
        <path class="cls-6" d="m85.29,142.48l-.51,3.09c-.15,1.06.56,2.05,1.61,2.25l32.07,5.26c1.06.15,2.05-.56,2.25-1.61l.5-3.09-35.92-5.9Z"/>
        <rect class="cls-21" x="92.83" y="119.59" width="23.39" height="36.41" rx="1.77" ry="1.77" transform="translate(-48.37 218.63) rotate(-80.68)"/>
        <g class="cls-15">
          <rect class="cls-17" x="92.83" y="119.59" width="23.39" height="36.41" rx="1.77" ry="1.77" transform="translate(-48.37 218.63) rotate(-80.68)"/>
        </g>
        <rect class="cls-9" x="92.83" y="119.59" width="23.39" height="36.41" rx="1.77" ry="1.77" transform="translate(-48.37 218.63) rotate(-80.68)"/>
        <path class="cls-3" d="m110.13,132.57l-1.77,6-6,4.29c-.85,2.63-1.85,5.2-3,7.71-.25.46-.08,1.03.37,1.28.13.07.26.11.41.11.83,0,1.8-.39,2.33-2,0,0,.23,3.16,2.18,1.23,0,0,1.19,3.06,3.05.65,0,0,4.31.64,5-2.47s1.71-8.59,1.71-8.59l2.74-6.43-7.02-1.78Z"/>
        <line class="cls-1" x1="102.43" y1="148.73" x2="103.11" y2="144.1"/>
        <path class="cls-1" d="m103.5,149.02s.47,1.53,1.53,1.28,2.57.93,5.87-.46"/>
        <path class="cls-11" d="m113.15,57.39s15,41.68,14.72,47.77-10.95,32.58-10.95,32.58l-8.24-2.62,5.5-31.07-4.93-21.59s-1.12-15.83,3.9-25.07Z"/>
        <path class="cls-1" d="m116.03,103.36c1.12-.86,2.57-1.16,3.94-.83"/>
        <path class="cls-18" d="m106.28,135.79c-.3-.4-.52-.84-.66-1.32-1.26-.02-2.3.98-2.32,2.24-.02,1.13.79,2.11,1.91,2.29,1.24.2,2.42-.64,2.63-1.88h0c-.64-.27-1.19-.74-1.56-1.33Z"/>
      </g>
    </g>
  </g>
</svg>